<svg xmlns="http://www.w3.org/2000/svg" viewBox="0 0 35.37 48.06"><defs><style>.cls-1{fill:#693f52;fill-rule:evenodd;}</style></defs><title>Asset 1</title><g id="Layer_2" data-name="Layer 2"><g id="Layer_1-2" data-name="Layer 1"><path class="cls-1" d="M18.29,31.76a2.91,2.91,0,1,0,2.91,2.9A2.9,2.9,0,0,0,18.29,31.76Zm2.15,2.9a2.12,2.12,0,1,1-2.15-2.15,2.16,2.16,0,0,1,2.15,2.15Z"/><path class="cls-1" d="M18.42,30.35a4.45,4.45,0,0,0,0,8.89,4.45,4.45,0,0,0,0-8.89Zm3.69,4.45a3.64,3.64,0,1,1-3.69-3.7,3.69,3.69,0,0,1,3.69,3.7Z"/><path class="cls-1" d="M30.94,31.33h.15c1,0,2.35-.7,3-2.67l.65-2,.33-1c.66-2,.05-2.81-.37-3.11h0a1.35,1.35,0,0,0-.92-.24A42.31,42.31,0,0,0,34.57,17C35,12.23,33.71,8.15,31,5.21A16.63,16.63,0,0,0,18.68.26a17.35,17.35,0,0,0-3,.24,7.1,7.1,0,0,1-.75-.44l0,0a.2.2,0,0,0-.26.05L14.3.57a.17.17,0,0,0,0,.14.17.17,0,0,0,.08.12l.05,0A8.11,8.11,0,0,0,17,2a2.53,2.53,0,0,1,1.48.85l0,0A.19.19,0,0,0,18.7,3l.52-.28a.19.19,0,0,0,.08-.26v0l0-.06a3.25,3.25,0,0,0-1.59-1.12l1,0A15.7,15.7,0,0,1,30.3,5.84c2.58,2.79,3.7,6.52,3.33,11.08A42.64,42.64,0,0,1,32.7,23l-.05.27a.23.23,0,0,0,.05.21.28.28,0,0,0,.19.09h.36a.2.2,0,0,0,.15-.06l.06,0a.64.64,0,0,1,.71-.12c.34.25.35,1.05,0,2.06l-.35,1.06c-.19.59-.38,1.2-.63,1.92a2.69,2.69,0,0,1-1.88,2l.06-.15c.05-.11.1-.22.14-.33a.26.26,0,0,0-.14-.33L31,29.42a.27.27,0,0,0-.32.15c-.38,1-.79,1.88-1.25,2.81l0,0-.15-.08a2.24,2.24,0,0,0-1.74-.14,2.29,2.29,0,0,0-.71.37A20.45,20.45,0,0,0,23,27.74c-1.61-1.48-3.12-2.3-4.27-2.3s-2.66.82-4.27,2.31a20.05,20.05,0,0,0-3.82,4.82,2.17,2.17,0,0,0-.72-.38,2.25,2.25,0,0,0-1.74.14L8,32.41l-.06-.08c-.45-.9-.86-1.83-1.24-2.76a.24.24,0,0,0-.32-.14L6,29.59a.25.25,0,0,0-.14.32l.14.33.06.14H6a2.71,2.71,0,0,1-1.84-2c-.24-.71-.43-1.31-.62-1.88l-.35-1.1c-.33-1-.32-1.81,0-2.06a.66.66,0,0,1,.73.13l.06,0a.21.21,0,0,0,.15,0l.36,0a.25.25,0,0,0,.11,0h.13a1.67,1.67,0,0,0,.94-.84,14.4,14.4,0,0,0,1-3c.68-2.46,1.53-5.54,3.73-6.93,2.47-1.56,4.6-1.28,7.06-1A16.94,16.94,0,0,0,26,11.17l.08.05a7.65,7.65,0,0,0,4,5.7.37.37,0,0,0,.49-.2.38.38,0,0,0-.15-.47A6.88,6.88,0,0,1,26.82,11a.38.38,0,0,0-.17-.28l-.38-.24a.35.35,0,0,0-.33,0,16.2,16.2,0,0,1-8.35.59c-2.5-.32-4.85-.62-7.55,1.08-2.45,1.54-3.34,4.77-4,7.36a13.37,13.37,0,0,1-1,2.84,1.11,1.11,0,0,1-.41.46l-1.05-.4a1.34,1.34,0,0,0-.91.24c-.42.3-1,1.1-.37,3.11l.33,1c.2.61.4,1.23.65,2,.66,2,2,2.67,3,2.67h.16c.19.43.39.87.63,1.35L4.57,34a1,1,0,0,0-.45,1.4L8.59,44l-.42-.26c-9-5.9-7.08-20.22-6.88-22.23C3.71,7.71,9.08,4,12,2.5a7.42,7.42,0,0,0,1.12.38,2.53,2.53,0,0,1,1.48.85l0,0a.19.19,0,0,0,.23.06l.53-.28a.2.2,0,0,0,.08-.26l0,0,0-.06a3.46,3.46,0,0,0-2.09-1.28,7,7,0,0,1-2.22-1l0,0a.19.19,0,0,0-.26,0l-.33.49a.19.19,0,0,0,0,.26l.06,0,.33.2,0,0C4.62,5,1.37,14.33.35,21.63,0,24.22-1.74,38.14,7.69,44.45c7,4.66,15.65,4.6,21.22,1,7.69-5,5.62-13.82,5.66-13.6l-1.2.85a11,11,0,0,1-5,12c-5.34,3.34-13,2.91-18.55,0a.88.88,0,0,0,.23-.07h0l3.49-1.81a2.41,2.41,0,0,0,1-.92,8.08,8.08,0,0,0,4.12.91,8.18,8.18,0,0,0,4.13-.92,2.34,2.34,0,0,0,1,.93l3.49,1.81a1,1,0,0,0,1.4-.44h0l4.56-8.86a1,1,0,0,0-.44-1.4l-2.51-1.3c.23-.47.44-.91.63-1.34ZM9.66,43.85a.11.11,0,0,1-.14-.05L5,34.94a.11.11,0,0,1,0-.08s0,0,0-.06H5l1-.52,4.66,9Zm4.24-2.71a1.49,1.49,0,0,1-.75.9L11.34,43l-4.66-9L8.49,33a1.53,1.53,0,0,1,2.06.65h0L13.81,40A1.54,1.54,0,0,1,13.9,41.14Zm9-1.51a2.33,2.33,0,0,0-.23,1.3,7,7,0,0,1-4,1,7,7,0,0,1-4-1,2.2,2.2,0,0,0-.23-1.31l-3.25-6.31a.57.57,0,0,0-.08-.13l0,0c2.14-4,5.75-7,7.57-7s5.43,3,7.56,7l0,0a.35.35,0,0,0-.07.12Zm9.48-4.83,0,.06h0a.11.11,0,0,1,0,.08L27.86,43.8a.11.11,0,0,1-.14.05l-1-.53,4.66-9Zm-1.68-.87-4.4,8.54L26,43,24.23,42A1.54,1.54,0,0,1,23.57,40l3.25-6.31a1.52,1.52,0,0,1,1.37-.83,1.45,1.45,0,0,1,.7.17Z"/><path class="cls-1" d="M15.57,19.43a.37.37,0,0,0-.37-.37H10.83a.38.38,0,0,0,0,.75H15.2A.38.38,0,0,0,15.57,19.43Z"/><path class="cls-1" d="M11.16,22.11c0,.52.67.93,1.53.93s1.52-.42,1.52-.93-.68-.93-1.52-.93S11.16,21.59,11.16,22.11Z"/><path class="cls-1" d="M22.46,22.11c0,.52.67.93,1.52.93s1.53-.42,1.53-.93-.69-.93-1.53-.93S22.46,21.59,22.46,22.11Z"/><path class="cls-1" d="M26.16,19.43a.38.38,0,0,0-.37-.37H21.42a.38.38,0,1,0,0,.75h4.37A.38.38,0,0,0,26.16,19.43Z"/></g></g></svg>