<svg xmlns="http://www.w3.org/2000/svg" viewBox="0 0 36.19 48.35"><defs><style>.cls-1{fill:#728b3a;fill-rule:evenodd;}</style></defs><title>Asset 6</title><g id="Layer_2" data-name="Layer 2"><g id="Layer_1-2" data-name="Layer 1"><path class="cls-1" d="M18,29a5.16,5.16,0,0,0,1.45.22A5.11,5.11,0,0,0,20.86,29a.38.38,0,0,0,.25-.47.35.35,0,0,0-.18-.22.34.34,0,0,0-.28,0,4,4,0,0,1-2.48,0,.38.38,0,0,0-.46.27A.37.37,0,0,0,18,29"/><path class="cls-1" d="M11.58,2C4.83,4.66,1.4,14.38.35,21.91,0,24.5-1.74,38.43,7.69,44.74c7,4.66,15.65,4.6,21.22,1,7.69-5,5.62-13.82,5.66-13.61l-1.2.86a11,11,0,0,1-5,12c-5.9,3.69-14.57,2.78-20.23-.94-9-5.9-7.08-20.23-6.88-22.23C3.88,7,9.84,3.76,12.59,2.52l0,0"/><path class="cls-1" d="M12.63,2.5a7.07,7.07,0,0,0,1.17.4,2.48,2.48,0,0,1,1.49.85l0,0a.18.18,0,0,0,.23.06l.53-.28a.19.19,0,0,0,.08-.26v0l0-.06A3.48,3.48,0,0,0,14,2a7.37,7.37,0,0,1-2.23-1l0,0a.18.18,0,0,0-.26,0h0l-.34.49a.22.22,0,0,0,0,.14.2.2,0,0,0,.09.13l.05,0,.34.21"/><path class="cls-1" d="M35.52,22.68a1.35,1.35,0,0,0-.92-.24,42.77,42.77,0,0,0,.78-5.36c.38-4.79-.87-8.89-3.6-11.85a16.77,16.77,0,0,0-12.39-5,18.61,18.61,0,0,0-3,.24c-.26-.13-.51-.28-.76-.43l0,0a.19.19,0,0,0-.26.05L15,.57a.27.27,0,0,0,0,.15A.18.18,0,0,0,15,.84l.05,0A8.3,8.3,0,0,0,17.64,2a2.48,2.48,0,0,1,1.49.86l0,0a.18.18,0,0,0,.23,0l.53-.28A.17.17,0,0,0,20,2.45v0l0-.06a3.36,3.36,0,0,0-1.6-1.14l1,0a15.82,15.82,0,0,1,11.7,4.67c2.59,2.81,3.72,6.55,3.35,11.14a44.42,44.42,0,0,1-.94,6.08l-.06.27a.27.27,0,0,0,.21.3h.4a.3.3,0,0,0,.16-.05l0-.05a.67.67,0,0,1,.72-.11c.34.24.35,1.05,0,2.06l-.34,1v0c-.19.6-.39,1.21-.63,1.94a2.71,2.71,0,0,1-1.9,2l.06-.15c0-.11.1-.22.14-.33a.25.25,0,0,0-.14-.33l-.41-.16a.25.25,0,0,0-.32.14,28.16,28.16,0,0,1-7,10.6,6.71,6.71,0,0,1-5.08,1.82,6.7,6.7,0,0,1-5.07-1.82,27.93,27.93,0,0,1-7-10.6A.25.25,0,0,0,7,29.57l-.4.16a.25.25,0,0,0-.14.33c0,.11.09.22.14.34l.06.13h0a2.73,2.73,0,0,1-1.86-2c-.24-.71-.43-1.32-.62-1.9l-.36-1.1c-.33-1-.32-1.82,0-2.06a.66.66,0,0,1,.73.13l.07,0a.28.28,0,0,0,.15,0l.36,0a.2.2,0,0,0,.11,0,.23.23,0,0,0,.14,0,1.64,1.64,0,0,0,1-.84,14.73,14.73,0,0,0,1-3c.68-2.48,1.54-5.57,3.76-7,2.48-1.57,4.62-1.29,7.1-1a17,17,0,0,0,8.57-.58l.08,0a7.74,7.74,0,0,0,4,5.73.37.37,0,1,0,.35-.66A6.92,6.92,0,0,1,27.58,11a.38.38,0,0,0-.17-.28L27,10.49a.35.35,0,0,0-.33,0,16.3,16.3,0,0,1-8.4.6c-2.51-.32-4.89-.63-7.6,1.08-2.46,1.55-3.36,4.8-4.08,7.4a13.69,13.69,0,0,1-1,2.85,1.12,1.12,0,0,1-.42.46c-.8-.34-.5-.14-1-.4a1.38,1.38,0,0,0-.92.24c-.43.3-1,1.1-.37,3.13l.34,1.05c.19.6.39,1.22.64,1.95.67,2,2,2.69,3,2.69h.15A28,28,0,0,0,13.67,41a7.65,7.65,0,0,0,5.72,2.07A7.68,7.68,0,0,0,25.11,41a28.13,28.13,0,0,0,6.61-9.51h.16c1,0,2.36-.71,3-2.69.25-.74.45-1.36.65-2l.33-1c.67-2,.06-2.83-.37-3.13"/><path class="cls-1" d="M26.41,22.81c0-.51-.69-.93-1.53-.93s-1.54.42-1.54.93.67.94,1.54.94,1.53-.42,1.53-.94m-12.54.94c.85,0,1.54-.42,1.54-.94s-.69-.93-1.54-.93-1.53.42-1.53.93.67.94,1.53.94m9.1,10a3.75,3.75,0,0,1-7.16,0Zm-3.58,3.39a4.67,4.67,0,0,0,4.46-3.66A.36.36,0,0,0,23.6,33l-.11,0H15.28a.38.38,0,0,0-.38.38.36.36,0,0,0,0,.1A4.68,4.68,0,0,0,19.39,37.13Zm7.94-16.71a.37.37,0,0,0,0-.29.37.37,0,0,0-.21-.2,5.92,5.92,0,0,0-2.24-.44,6.1,6.1,0,0,0-2.25.44.38.38,0,0,0-.2.5.37.37,0,0,0,.34.23.32.32,0,0,0,.14,0,5.57,5.57,0,0,1,2-.39,5.14,5.14,0,0,1,2,.39.39.39,0,0,0,.49-.21m-11.5.21a.38.38,0,0,0,.5-.2.44.44,0,0,0,0-.3.39.39,0,0,0-.2-.2,5.95,5.95,0,0,0-4.49,0,.37.37,0,0,0-.19.5.38.38,0,0,0,.47.2,5.08,5.08,0,0,1,2-.39,5.14,5.14,0,0,1,2,.39"/></g></g></svg>