<svg xmlns="http://www.w3.org/2000/svg" viewBox="0 0 35.91 48.34"><defs><style>.cls-1{fill:#693f52;fill-rule:evenodd;}</style></defs><title>Asset 2</title><g id="Layer_2" data-name="Layer 2"><g id="Layer_1-2" data-name="Layer 1"><path class="cls-1" d="M24.82,26.11c1.49,0,2.71-1.53,2.71-3.41s-1.22-3.4-2.71-3.4-2.72,1.53-2.72,3.4S23.32,26.11,24.82,26.11Zm0-6.06c1.08,0,2,1.19,2,2.65s-.88,2.66-2,2.66-2-1.19-2-2.66S23.73,20.05,24.82,20.05Z"/><path class="cls-1" d="M16.11,22.7c0-1.87-1.22-3.4-2.72-3.4s-2.71,1.53-2.71,3.4,1.22,3.41,2.71,3.41S16.11,24.58,16.11,22.7Zm-2.72,2.66c-1.08,0-2-1.19-2-2.66s.88-2.65,2-2.65,2,1.19,2,2.65S14.48,25.36,13.39,25.36Z"/><path class="cls-1" d="M19.11,35.88c-3.32,0-6,1.7-6,3.78s2.7,3.77,6,3.77,6-1.69,6-3.77S22.42,35.88,19.11,35.88Zm0,.76a7.51,7.51,0,0,1,3.84,1H15.26A7.55,7.55,0,0,1,19.11,36.64Zm0,6a7.72,7.72,0,0,1-3.61-.83h7.21A7.68,7.68,0,0,1,19.11,42.68Zm4.61-1.58H14.49a2.24,2.24,0,0,1-.58-1h10.4A2.37,2.37,0,0,1,23.72,41.1Zm-9.84-1.75a2.05,2.05,0,0,1,.49-1h9.48a2.25,2.25,0,0,1,.49,1Z"/><path class="cls-1" d="M35.25,22.68a1.39,1.39,0,0,0-.93-.24,42.77,42.77,0,0,0,.78-5.36c.38-4.79-.86-8.89-3.6-11.85a16.77,16.77,0,0,0-12.39-5,17.52,17.52,0,0,0-3,.24,8.31,8.31,0,0,1-.76-.44l-.05,0A.19.19,0,0,0,15,.08L14.7.57a.19.19,0,0,0,0,.26h0l.05,0A8.3,8.3,0,0,0,17.36,2a2.55,2.55,0,0,1,1.5.86l0,0a.18.18,0,0,0,.23,0l.53-.28a.18.18,0,0,0,.08-.25v0l0,0a3.3,3.3,0,0,0-1.6-1.14l1,0a15.82,15.82,0,0,1,11.7,4.67c2.59,2.8,3.72,6.55,3.35,11.14a44.66,44.66,0,0,1-.94,6.08l0,.27a.25.25,0,0,0,.2.3h.4a.3.3,0,0,0,.16-.05l.06-.05a.65.65,0,0,1,.71-.11c.34.24.35,1.05,0,2.06l-.33,1c-.22.68-.41,1.26-.65,2a2.72,2.72,0,0,1-1.9,2l.06-.15c.05-.11.1-.22.14-.33a.25.25,0,0,0-.14-.33l-.41-.16a.25.25,0,0,0-.32.14,29.83,29.83,0,0,1-4.75,8.22c-.07-.51-.15-1.11-.25-1.82a3.93,3.93,0,0,0-.85-2c3.31-4.23,6.05-10.3,4.74-14.37-1.13-3.51-5.52-5.88-10.93-5.88S9.33,16.28,8.2,19.79c-1.31,4.07,1.43,10.14,4.74,14.37a3.91,3.91,0,0,0-.84,2c-.11.73-.19,1.36-.26,1.87A30,30,0,0,1,7,29.71a.24.24,0,0,0-.32-.14l-.41.16a.25.25,0,0,0-.14.33c0,.11.09.22.14.33l.06.14h0a2.73,2.73,0,0,1-1.86-2c-.24-.72-.43-1.32-.62-1.91l-.36-1.09c-.33-1-.32-1.82,0-2.06a.66.66,0,0,1,.74.13l.06,0a.28.28,0,0,0,.15,0l.36,0a.15.15,0,0,0,.11,0,.17.17,0,0,0,.14,0A1.67,1.67,0,0,0,6,22.75a14.73,14.73,0,0,0,1-3c.68-2.48,1.54-5.57,3.76-7,2.48-1.57,4.62-1.3,7.1-1a16.9,16.9,0,0,0,8.57-.57l.08,0a7.74,7.74,0,0,0,4,5.73.39.39,0,0,0,.51-.16.41.41,0,0,0,0-.29.39.39,0,0,0-.18-.22A6.89,6.89,0,0,1,27.3,11a.37.37,0,0,0-.17-.28l-.39-.24a.35.35,0,0,0-.33,0,16.3,16.3,0,0,1-8.4.6c-2.52-.33-4.89-.63-7.6,1.08-2.46,1.55-3.36,4.8-4.08,7.4a13.69,13.69,0,0,1-1,2.85,1.12,1.12,0,0,1-.42.46l-1.05-.4a1.38,1.38,0,0,0-.92.24c-.42.3-1,1.1-.37,3.12l.33,1c.21.65.4,1.25.65,2,.67,2,2,2.69,3,2.69h.15a29.47,29.47,0,0,0,4.91,7.75,4.45,4.45,0,0,0,0,.53c0,2.81,3.35,5.11,7.48,5.13h.05c4.12,0,7.48-2.32,7.48-5.13,0-.07,0-.26-.06-.59a29.24,29.24,0,0,0,4.86-7.69h.16c1,0,2.36-.71,3-2.69.25-.75.45-1.36.65-2l.33-1C36.28,23.78,35.67,23,35.25,22.68ZM8.92,20c1-3.2,5.14-5.35,10.21-5.36S28.31,16.82,29.34,20c1.21,3.77-1.4,9.52-4.53,13.57a8.43,8.43,0,0,0-5.65-2h-.05a8.41,8.41,0,0,0-5.65,2C10.32,29.54,7.71,23.79,8.92,20ZM19.13,44.14c-3.72,0-6.75-2-6.75-4.37,0-.06,0-.5.47-3.57.26-2.17,3-3.88,6.28-3.88s6,1.72,6.29,3.9c.43,3.05.46,3.49.46,3.55C25.88,42.17,22.85,44.13,19.13,44.14Z"/><path class="cls-1" d="M33.37,33a11,11,0,0,1-5,12c-5.9,3.68-14.57,2.78-20.23-.94-9-5.9-7.08-20.23-6.88-22.23C3.86,7.18,9.72,3.83,12.5,2.55a5.79,5.79,0,0,0,1,.34,2.6,2.6,0,0,1,1.5.86l0,0a.19.19,0,0,0,.23.06l.54-.28a.21.21,0,0,0,.09-.13.2.2,0,0,0,0-.15l0-.06A3.45,3.45,0,0,0,13.74,2a7.3,7.3,0,0,1-2.24-1l-.05,0a.18.18,0,0,0-.26,0l-.33.49a.19.19,0,0,0,0,.26h0l.05,0,.34.2.13.07C4.78,4.81,1.4,14.43.35,21.91,0,24.5-1.74,38.43,7.69,44.74c7,4.66,15.65,4.6,21.22,1,7.69-5,5.62-13.82,5.66-13.61Z"/></g></g></svg>