<svg xmlns="http://www.w3.org/2000/svg" viewBox="0 0 36.05 48.35"><defs><style>.cls-1{fill:#b25a27;fill-rule:evenodd;}</style></defs><title>Asset 4</title><g id="Layer_2" data-name="Layer 2"><g id="Layer_1-2" data-name="Layer 1"><path class="cls-1" d="M16,18.51h0a.39.39,0,0,0-.27.11,5.41,5.41,0,0,1-4.4,1.44.38.38,0,0,0-.43.32h0a.39.39,0,0,0,.33.43,6.49,6.49,0,0,0,.77.05,6.21,6.21,0,0,0,4.26-1.71.38.38,0,0,0,0-.53h0A.39.39,0,0,0,16,18.51Z"/><path class="cls-1" d="M23.56,35v-.05a.38.38,0,0,0-.14-.25,6.23,6.23,0,0,0-4-1.38,6.27,6.27,0,0,0-4,1.38.38.38,0,0,0-.06.53h0a.38.38,0,0,0,.53.06,5.77,5.77,0,0,1,7.1,0,.41.41,0,0,0,.24.08A.37.37,0,0,0,23.56,35Z"/><path class="cls-1" d="M13.73,23.75c.85,0,1.54-.42,1.54-.94s-.69-.93-1.54-.93-1.53.42-1.53.93S12.87,23.75,13.73,23.75Z"/><path class="cls-1" d="M17.72,36.2a.38.38,0,0,0,.38.37h2.29a.38.38,0,1,0,0-.75H18.1A.38.38,0,0,0,17.72,36.2Z"/><path class="cls-1" d="M27.26,20.81a.38.38,0,0,0,.32-.42h0a.38.38,0,0,0-.42-.32,5.43,5.43,0,0,1-4.41-1.44.37.37,0,0,0-.53,0,.36.36,0,0,0-.11.26.4.4,0,0,0,.12.27,6.23,6.23,0,0,0,4.26,1.7A6.49,6.49,0,0,0,27.26,20.81Z"/><path class="cls-1" d="M26.27,22.81c0-.51-.69-.93-1.53-.93s-1.54.42-1.54.93.67.94,1.54.94S26.27,23.33,26.27,22.81Z"/><path class="cls-1" d="M17.82,29a5.16,5.16,0,0,0,1.45.22A5.11,5.11,0,0,0,20.72,29a.38.38,0,0,0,.25-.47.35.35,0,0,0-.18-.22.34.34,0,0,0-.28,0,4,4,0,0,1-2.48,0,.37.37,0,0,0-.46.26.34.34,0,0,0,0,.28.35.35,0,0,0,.22.18Z"/><path class="cls-1" d="M35.38,22.68a1.35,1.35,0,0,0-.92-.24,42.77,42.77,0,0,0,.78-5.36c.38-4.79-.87-8.89-3.6-11.85a16.77,16.77,0,0,0-12.39-5,18.61,18.61,0,0,0-3,.24C16,.37,15.73.22,15.48.07l-.05,0a.19.19,0,0,0-.26.05l-.34.49a.21.21,0,0,0,.05.27h0l0,0A8.3,8.3,0,0,0,17.5,2,2.48,2.48,0,0,1,19,2.89l0,0a.18.18,0,0,0,.23,0l.53-.28a.19.19,0,0,0,.08-.26h0l0-.06a3.36,3.36,0,0,0-1.6-1.14l1,0A15.83,15.83,0,0,1,31,5.87C33.54,8.68,34.67,12.42,34.3,17a44.42,44.42,0,0,1-.94,6.08l-.06.27a.27.27,0,0,0,.21.3h.4a.3.3,0,0,0,.16-.05l0-.05a.67.67,0,0,1,.72-.11c.34.24.35,1.05,0,2.06l-.34,1v0c-.19.6-.39,1.21-.63,1.94a2.71,2.71,0,0,1-1.9,2l.06-.15c.05-.11.1-.22.14-.33a.25.25,0,0,0-.14-.33l-.41-.16a.25.25,0,0,0-.32.14,28.16,28.16,0,0,1-7,10.6,6.71,6.71,0,0,1-5.08,1.82,6.7,6.7,0,0,1-5.07-1.82,27.93,27.93,0,0,1-7-10.6.25.25,0,0,0-.32-.14l-.41.16a.26.26,0,0,0-.15.32h0c0,.11.09.22.14.34l.06.13h0a2.73,2.73,0,0,1-1.86-2c-.21-.63-.42-1.27-.62-1.91l-.36-1.09c-.33-1-.32-1.82,0-2.06a.66.66,0,0,1,.73.13l.07,0a.28.28,0,0,0,.15,0l.36,0a.2.2,0,0,0,.11,0,.23.23,0,0,0,.14,0,1.67,1.67,0,0,0,1-.84,14.73,14.73,0,0,0,1-3c.68-2.48,1.54-5.56,3.76-7,2.48-1.57,4.62-1.29,7.1-1a17,17,0,0,0,8.57-.58l.08,0a7.74,7.74,0,0,0,4,5.73.37.37,0,1,0,.35-.66A6.92,6.92,0,0,1,27.44,11a.42.42,0,0,0-.17-.28l-.39-.24a.35.35,0,0,0-.33,0,16.3,16.3,0,0,1-8.4.6c-2.52-.33-4.89-.63-7.6,1.08-2.46,1.55-3.36,4.8-4.08,7.4a13.69,13.69,0,0,1-1,2.85,1.12,1.12,0,0,1-.42.46l-1-.4a1.36,1.36,0,0,0-.92.24c-.43.3-1,1.1-.37,3.13l.33,1c.21.65.4,1.25.65,2,.67,2,2,2.69,3,2.69h.15A28,28,0,0,0,13.53,41a7.65,7.65,0,0,0,5.72,2.07A7.68,7.68,0,0,0,25,41a28.13,28.13,0,0,0,6.61-9.51h.16c1,0,2.36-.71,3-2.69.25-.74.45-1.36.65-2l.33-1C36.42,23.78,35.81,23,35.38,22.68Z"/><path class="cls-1" d="M33.37,33a11,11,0,0,1-5,12c-5.9,3.69-14.57,2.78-20.23-.94-9-5.9-7.08-20.23-6.88-22.23C3.88,7.07,9.81,3.78,12.57,2.53a7.81,7.81,0,0,0,1.09.37,2.48,2.48,0,0,1,1.49.85l0,0a.18.18,0,0,0,.23.06L16,3.57a.19.19,0,0,0,.1-.12.22.22,0,0,0,0-.16l0-.06A3.45,3.45,0,0,0,13.87,2a7.37,7.37,0,0,1-2.23-1l-.05,0a.18.18,0,0,0-.26,0L11,1.44a.2.2,0,0,0,0,.26h0l0,0,.34.21.07,0C4.8,4.74,1.4,14.41.35,21.91,0,24.5-1.74,38.43,7.69,44.74c7,4.66,15.65,4.6,21.22,1,7.69-5,5.62-13.82,5.66-13.61Z"/></g></g></svg>